<?xml version="1.0"?>
<svg version="1.1" xmlns="http://www.w3.org/2000/svg" width="256" height="110" style=""><path fill="#f5f5f5" d="M29.112,60.404q2.744,0,2.744,1.036q0,0.224-0.168,0.504q-0.672,1.036-2.436,1.036q-1.148,0-2.352-0.406t-1.82-0.854q-2.604,0.756-4.634,2.324t-3.038,3.556q-0.532,1.064-0.532,2.072q0,1.568,1.302,2.548t3.822,0.98q0.7,0,1.456-0.084q4.452-0.476,7.084-2.856q2.212-1.96,2.212-4.116q0-1.708-1.652-1.708q-1.988,0-4.564,2.128q-0.644,0.532-1.092,1.344t-0.448,1.596t0.784,0.98q0.28,0.112,0.28,0.28q0,0.28-0.56,0.224q-1.344-0.028-1.344-1.764t1.764-3.248q2.408-2.072,5.096-2.072q2.016,0,2.548,1.26q0.224,0.588,0.224,1.176q0,2.604-2.884,4.9q-3.444,2.8-8.736,2.8q-3.276,0-5.18-1.218t-1.904-3.178q0-1.148,0.728-2.296q2.576-4.088,8.792-6.076q-0.924-1.064-0.924-2.268t0.588-2.016q1.148-1.568,3.444-2.576q2.744-1.204,5.488-1.204q1.596,0,2.562,0.518t0.966,1.596t-0.798,1.82t-1.666,0.742t-0.868-0.42q0-0.252,0.364-0.252l0.56,0.084q0.56,0,1.022-0.602t0.462-1.246q0-0.952-1.092-1.4q-0.7-0.28-1.316-0.28t-0.868,0.028q-2.408,0.14-4.704,1.68q-2.688,1.764-2.688,3.976q0,0.812,0.56,1.512q1.792-0.56,3.416-0.56z M26.172,61.412q1.204,0.952,2.772,0.952t1.568-0.868q0-0.392-1.4-0.392t-2.94,0.308z M43.70476,63.792q0.392,0,0.392,0.924q0,1.4-1.386,2.618t-3.178,1.218q-1.148,0-2.212-0.56q-2.268-1.232-2.268-4.284q0-2.156,1.176-4.228q1.624-2.828,4.662-4.48t5.922-1.652q2.1,0,3.444,0.924q1.512,1.036,1.512,3.08q0,2.604-2.52,8.162t-2.52,6.286q0,0.224,0.14,0.14q0.728-0.476,6.678-7.602t8.274-8.806q2.072-1.54,3.458-2.31t2.842-0.77q0.392,0,0.588,0.028q0.756,0.056,0.756,0.784q0,0.364-0.252,0.364q-0.028,0-0.392-0.126t-0.616-0.126q-3.92,0-10.556,7.084q-2.492,2.66-6.062,7.168t-4.214,4.872q-2.268,1.288-2.548,1.288q-0.084,0-0.084-0.28q0-0.924,1.568-4.704q0.644-1.456,1.876-4.368l1.288-3.78q0.672-1.904,0.672-2.772q0-1.932-1.12-2.94t-3.22-1.008t-4.508,1.484q-2.604,1.68-3.892,4.144t-1.288,4.172t0.7,2.688q1.148,1.596,3.052,1.596q1.456,0,2.576-0.966t1.12-2.45q0-0.308-0.07-0.56t0.21-0.252z M70.25352,60.404q2.744,0,2.744,1.036q0,0.224-0.168,0.504q-0.672,1.036-2.436,1.036q-1.148,0-2.352-0.406t-1.82-0.854q-2.604,0.756-4.634,2.324t-3.038,3.556q-0.532,1.064-0.532,2.072q0,1.568,1.302,2.548t3.822,0.98q0.7,0,1.456-0.084q4.452-0.476,7.084-2.856q2.212-1.96,2.212-4.116q0-1.708-1.652-1.708q-1.988,0-4.564,2.128q-0.644,0.532-1.092,1.344t-0.448,1.596t0.784,0.98q0.28,0.112,0.28,0.28q0,0.28-0.56,0.224q-1.344-0.028-1.344-1.764t1.764-3.248q2.408-2.072,5.096-2.072q2.016,0,2.548,1.26q0.224,0.588,0.224,1.176q0,2.604-2.884,4.9q-3.444,2.8-8.736,2.8q-3.276,0-5.18-1.218t-1.904-3.178q0-1.148,0.728-2.296q2.576-4.088,8.792-6.076q-0.924-1.064-0.924-2.268t0.588-2.016q1.148-1.568,3.444-2.576q2.744-1.204,5.488-1.204q1.596,0,2.562,0.518t0.966,1.596t-0.798,1.82t-1.666,0.742t-0.868-0.42q0-0.252,0.364-0.252l0.56,0.084q0.56,0,1.022-0.602t0.462-1.246q0-0.952-1.092-1.4q-0.7-0.28-1.316-0.28t-0.868,0.028q-2.408,0.14-4.704,1.68q-2.688,1.764-2.688,3.976q0,0.812,0.56,1.512q1.792-0.56,3.416-0.56z M67.31352,61.412q1.204,0.952,2.772,0.952t1.568-0.868q0-0.392-1.4-0.392t-2.94,0.308z M87.98228,71.464q-0.672,1.036-0.672,1.358t0.252,0.434q0,0.056-0.462,0.35t-1.274,0.294t-0.812-0.42q0-0.728,2.758-4.83t3.626-5.67q1.904-3.416,1.904-5.404q0-0.784-0.308-1.456q-0.476-1.008-2.296-1.008q-3.332,0-7.084,3.052q-2.856,2.352-4.396,4.872q-1.4,2.38-1.4,4.256q0,2.688,2.492,2.744l0.224,0q3.304,0,5.012-2.324q0.672-0.924,0.672-1.568t-0.308-0.812q-0.028-0.028-0.028-0.112t0.168-0.084q0.728,0,0.728,0.952q0,0.588-0.56,1.596t-2.03,1.904t-3.346,0.896t-2.968-1.092t-1.092-2.94q0-4.368,5.992-9.184q1.512-1.204,3.934-2.016t4.396-0.812t2.786,0.742t0.812,2.058q0,3.192-3.864,9.044q0.868-1.092,2.828-2.772q6.972-5.852,11.984-7.7q0.252-0.112,0.56-0.112q1.064,0,1.344,1.204q0.14,0.476-1.344,1.988q-3.5,3.584-5.936,7.84t-2.436,6.104q0,0.448,0.168,0.63t0.532,0.112t1.526-0.574t1.526-0.588q0.14,0.056,0.14,0.14q0,0.42-1.47,1.176t-2.198,0.756t-0.924-0.252q-0.504-0.7-0.504-1.764q0-2.408,2.576-6.916q1.652-2.828,5.096-7.616q-3.724,0.336-9.632,5.88q-4.704,4.452-6.692,7.644z M104.64704,69.924q0-3.024,1.792-5.992q-2.072-1.316-2.072-3.892q0-3.108,2.744-5.516q3.08-2.716,7.952-2.716q2.24,0,4.816,0.644q0.588,0.14,5.012,2.17t6.356,2.03q1.288,0,1.932-0.728q0.336-0.364,0.336-0.784t-0.364-0.756q-0.196-0.28-0.196-0.364t0.154-0.084t0.532,0.49t0.378,1.148t-0.882,1.26t-2.226,0.602q-2.1,0-6.524-2.03t-5.558-2.254t-2.59-0.224q-5.796,0-9.128,3.752q-0.392,0.42-0.924,1.694t-0.532,2.45q0,1.624,1.148,2.52q1.456-2.128,3.444-3.388t4.032-1.26q2.52,0,2.52,1.96q0,2.352-2.758,5.11t-5.11,2.758q-1.512,0-1.512-1.288q0-0.448,0.238-0.784t0.574-0.252l-0.056,0.644q0,0.42,1.288,0.42q1.904,0,4.018-1.96t2.562-3.836q0.112-0.42,0.112-0.756q0-1.26-1.61-1.26t-3.332,1.232t-3.234,3.248q0.112,0.056,0.868,0.224l1.68,0.056q1.232,0.056,1.232,0.28q0,0.392-1.176,0.392l-0.168,0q-1.708,0-2.8-0.42q-2.156,3.304-2.156,6.076q0,3.584,2.772,3.584q3.136,0,6.524-4.368l5.488-8.176q3.08-4.48,5.348-4.592l1.064,0.252q0.504,0.28,0.504,0.84t-0.28,0.56l-0.896-0.14q-1.932,0-4.956,4.172l-5.572,7.784q-3.584,4.172-6.86,4.172q-2.24,0-3.094-1.204t-0.854-3.5z M145.7558,59.816q-1.036,0.42-1.778,0.42t-0.742-0.308q0-0.196,0.826-0.224t1.19-0.196q1.064-0.56,1.064-1.652q0-0.56-0.308-1.176q-0.896-1.596-4.34-1.596q-1.988,0-3.976,0.602t-3.332,1.848t-1.344,2.31q0,1.624,3.22,2.38l3.304,0.616q1.988,0.364,2.968,1.008q1.288,0.784,1.288,2.24q0,0.588-0.196,1.26q-0.896,3.024-4.62,4.62q-3.108,1.372-7.336,1.372q-1.204,0-2.1-0.112q0.896,0.504,2.352,0.868q0.112,0.028,0.112,0.112q0,0.252-0.588,0.252q-1.148,0-2.856-1.372q-2.324-0.364-3.472-1.288q-0.728-0.588-1.344-1.736t-0.616-2.072t0.364-1.54q0.84-1.484,2.128-1.484q0.98,0,1.148,1.652q0.392,3.192,0.532,3.64q0.42,1.372,1.428,2.324q1.176,0.252,2.548,0.252q3.024,0,5.936-1.204t4.2-3.416q0.532-0.868,0.532-1.54q0-1.316-2.324-2.044l-4.928-1.12q-1.512-0.364-2.422-1.204t-0.91-1.932q0-1.68,2.1-3.36q1.596-1.288,3.906-2.002t4.536-0.714t3.682,0.644q1.876,0.868,1.876,2.534t-1.708,2.338z M127.7238,72.304q-1.624-1.792-2.072-4.9q-0.252-1.764-0.476-1.764t-0.42,0.126t-0.392,0.546t-0.196,1.092q0,2.156,1.512,3.696q0.756,0.784,2.044,1.204z M160.49332,73.088q0-0.784,3.22-6.076q-2.296,0-3.052,0.196q-1.26,0.308-1.876,1.26q-0.224,0.308-0.378,0.336t-0.154-0.126t0.112-0.266q1.064-1.428,2.1-1.96t3.276-0.532l0.672,0q1.708-2.604,4.788-7.728q1.148-2.156,1.148-3.5q0-2.156-2.632-2.184l-0.308,0q-3.584,0-6.524,1.792t-4.648,4.452t-1.708,4.788q0,2.604,2.436,2.604q1.932,0,3.304-1.708t1.372-3.248q0-0.868-0.448-1.428q-0.056-0.056-0.056-0.14q0-0.196,0.224-0.196q0.112,0,0.168,0.084q0.56,0.728,0.56,1.736q0,1.708-1.4,3.486t-2.94,1.974q-0.476,0.084-0.924,0.084q-1.792,0-2.772-1.148q-0.952-1.036-0.952-2.8q0-0.728,0.168-1.484q0.84-3.78,4.858-6.608t9.03-2.828q1.932,0,3.318,0.826t1.386,2.31t-1.036,3.136l-5.068,7.784q0.896,0.028,3.206,0.266t3.472,0.238t1.554-0.028l1.064-1.764q2.716-4.564,6.286-8.526t6.23-4.914q0.084-0.028,0.168-0.028q0.196,0,0.196,0.224q0,0.084-0.084,0.14q-1.792,1.008-5.138,4.886t-5.782,7.966l-1.092,1.848q1.288-0.168,1.848-0.644q0.112-0.084,0.196,0.098t-0.028,0.266q-0.84,0.644-2.38,0.924q-1.96,3.64-1.96,5.124q0,0.952,0.812,0.952q0.56,0,1.302-0.378t0.994-0.644t0.308-0.266t0.028,0.182t-0.112,0.294q-0.476,0.448-1.428,0.952t-1.54,0.504t-0.868-0.196q-0.896-0.588-0.896-2.044t1.484-4.256q-1.036,0.084-1.932,0.084q-0.308,0-6.58-0.196q-1.988,3.136-3.192,5.712q-0.364,0.756-0.882,0.756t-0.518-0.42z M194.54608,60.404q2.744,0,2.744,1.036q0,0.224-0.168,0.504q-0.672,1.036-2.436,1.036q-1.148,0-2.352-0.406t-1.82-0.854q-2.604,0.756-4.634,2.324t-3.038,3.556q-0.532,1.064-0.532,2.072q0,1.568,1.302,2.548t3.822,0.98q0.7,0,1.456-0.084q4.452-0.476,7.084-2.856q2.212-1.96,2.212-4.116q0-1.708-1.652-1.708q-1.988,0-4.564,2.128q-0.644,0.532-1.092,1.344t-0.448,1.596t0.784,0.98q0.28,0.112,0.28,0.28q0,0.28-0.56,0.224q-1.344-0.028-1.344-1.764t1.764-3.248q2.408-2.072,5.096-2.072q2.016,0,2.548,1.26q0.224,0.588,0.224,1.176q0,2.604-2.884,4.9q-3.444,2.8-8.736,2.8q-3.276,0-5.18-1.218t-1.904-3.178q0-1.148,0.728-2.296q2.576-4.088,8.792-6.076q-0.924-1.064-0.924-2.268t0.588-2.016q1.148-1.568,3.444-2.576q2.744-1.204,5.488-1.204q1.596,0,2.562,0.518t0.966,1.596t-0.798,1.82t-1.666,0.742t-0.868-0.42q0-0.252,0.364-0.252l0.56,0.084q0.56,0,1.022-0.602t0.462-1.246q0-0.952-1.092-1.4q-0.7-0.28-1.316-0.28t-0.868,0.028q-2.408,0.14-4.704,1.68q-2.688,1.764-2.688,3.976q0,0.812,0.56,1.512q1.792-0.56,3.416-0.56z M191.60608,61.412q1.204,0.952,2.772,0.952t1.568-0.868q0-0.392-1.4-0.392t-2.94,0.308z M217.03484,64.24q-1.4,0-2.604-0.224q0.392,1.232,1.652,5.572q0.392,1.26,1.232,2.548q1.148,1.652,2.128,1.652q1.176,0,1.96-2.38q0.14-0.56,0.294-0.56t0.224,0.322t0.07,0.434q0,0.7-0.784,1.792q-1.036,1.54-2.268,1.54t-2.268-1.232t-2.03-4.494t-0.994-4.158q0-0.14,0.028-0.224q-3.36,4.452-4.816,5.88q-3.248,3.164-6.636,3.164q-2.38,0-2.38-1.792q0-0.896,0.56-1.974t1.372-1.89t1.428-0.812q0.112,0,0.112,0.056q0,0.14-0.7,0.7t-1.344,1.582t-0.644,1.862q0,1.484,1.988,1.484q3.724,0,10.248-8.736q0.364-0.476,0.616-0.672l-0.448-0.168q-0.364,0.14-0.588,0.14q-0.588,0-0.588-0.476q0-0.644,0.868-0.84q0.112-0.028,0.196-0.028q0.504,0,1.176,0.504q2.464-2.744,2.52-2.8q2.044-2.1,2.758-2.1t0.714,0.616q0,0.28-0.126,0.532t-0.294,0.252q-0.168,0.056-0.168-0.168q0-0.112,0.168-0.336q0.028-0.392-0.252-0.392q-0.896,0-4.34,4.76q0.84,0.056,1.4,0.056q6.496,0,8.12-3.36q0.336-0.728,0.336-1.344q0-1.232-1.12-2.128q-1.792-1.456-5.824-1.456t-8.232,2.044q-5.096,2.492-5.096,5.852q0,1.092,1.372,1.092t2.912-1.008t2.072-1.988q0.196-0.364,0.378-0.364t0.098,0.224q-0.532,1.568-2.366,2.674t-3.822,1.106t-1.988-1.26l0-0.196q0.42-3.668,4.494-6.23t9.814-2.562q5.348,0,7.588,1.848q1.344,1.12,1.344,2.632q0,0.644-0.308,1.4q-0.868,2.044-3.556,3.038t-5.656,0.994z M237.4236,60.404q2.744,0,2.744,1.036q0,0.224-0.168,0.504q-0.672,1.036-2.436,1.036q-1.148,0-2.352-0.406t-1.82-0.854q-2.604,0.756-4.634,2.324t-3.038,3.556q-0.532,1.064-0.532,2.072q0,1.568,1.302,2.548t3.822,0.98q0.7,0,1.456-0.084q4.452-0.476,7.084-2.856q2.212-1.96,2.212-4.116q0-1.708-1.652-1.708q-1.988,0-4.564,2.128q-0.644,0.532-1.092,1.344t-0.448,1.596t0.784,0.98q0.28,0.112,0.28,0.28q0,0.28-0.56,0.224q-1.344-0.028-1.344-1.764t1.764-3.248q2.408-2.072,5.096-2.072q2.016,0,2.548,1.26q0.224,0.588,0.224,1.176q0,2.604-2.884,4.9q-3.444,2.8-8.736,2.8q-3.276,0-5.18-1.218t-1.904-3.178q0-1.148,0.728-2.296q2.576-4.088,8.792-6.076q-0.924-1.064-0.924-2.268t0.588-2.016q1.148-1.568,3.444-2.576q2.744-1.204,5.488-1.204q1.596,0,2.562,0.518t0.966,1.596t-0.798,1.82t-1.666,0.742t-0.868-0.42q0-0.252,0.364-0.252l0.56,0.084q0.56,0,1.022-0.602t0.462-1.246q0-0.952-1.092-1.4q-0.7-0.28-1.316-0.28t-0.868,0.028q-2.408,0.14-4.704,1.68q-2.688,1.764-2.688,3.976q0,0.812,0.56,1.512q1.792-0.56,3.416-0.56z M234.4836,61.412q1.204,0.952,2.772,0.952t1.568-0.868q0-0.392-1.4-0.392t-2.94,0.308z"/><path fill="#fafafa" d=""/></svg>
